<svg width="524" height="252" viewBox="0 0 524 252" fill="none" xmlns="http://www.w3.org/2000/svg">
<path d="M7.96 0.927994H41.624C49.56 0.927994 55.6613 1.52533 59.928 2.71999C64.28 3.82933 67.352 5.664 69.144 8.224C70.936 10.6987 71.832 14.1973 71.832 18.72V28.96C71.832 31.264 70.8933 33.44 69.016 35.488C67.224 37.536 65.0907 38.944 62.616 39.712V40.352C65.8587 40.6933 68.8027 42.1013 71.448 44.576C74.1787 46.9653 75.544 49.6533 75.544 52.64V65.44C75.544 72.1813 72.856 76.96 67.48 79.776C62.104 82.592 53.784 84 42.52 84H7.96V0.927994ZM41.624 34.72C44.7813 34.72 47.128 34.464 48.664 33.952C50.2 33.44 51.224 32.6293 51.736 31.52C52.3333 30.3253 52.632 28.6187 52.632 26.4V22.304C52.632 20.3413 52.376 18.8907 51.864 17.952C51.352 16.928 50.2853 16.2027 48.664 15.776C47.128 15.3493 44.6533 15.136 41.24 15.136H27.928V34.72H41.624ZM42.136 69.792C47 69.792 50.456 69.2373 52.504 68.128C54.552 67.0187 55.576 65.2267 55.576 62.752V56.096C55.576 53.024 54.7653 50.848 53.144 49.568C51.608 48.288 48.8347 47.648 44.824 47.648H27.928V69.792H42.136ZM89.21 0.927994H152.57V15.136H109.178V34.208H148.346V48.416H109.178V69.792H153.85V84H89.21V0.927994ZM167.335 0.927994H226.343V15.136H187.303V33.952H199.719C207.399 33.952 213.543 34.4213 218.151 35.36C222.759 36.2133 226.258 37.92 228.647 40.48C231.122 42.9547 232.359 46.5387 232.359 51.232V64.288C232.359 77.4293 221.18 84 198.823 84H167.335V0.927994ZM197.927 69.792C202.962 69.792 206.631 69.1093 208.935 67.744C211.239 66.2933 212.391 64.1173 212.391 61.216V54.944C212.391 52.2987 211.282 50.5067 209.063 49.568C206.844 48.6293 203.218 48.16 198.183 48.16H187.175V69.792H197.927ZM242.62 40.224H282.044V54.56H242.62V40.224ZM0.92 217.792H2.712C6.21067 217.792 9.02667 216.469 11.16 213.824C13.3787 211.093 15.0853 206.144 16.28 198.976C17.4747 191.808 18.072 181.653 18.072 168.512V148.928H78.488V217.792H90.648V251.328H72.728V232H18.84V251.328H0.92V217.792ZM58.52 217.92V163.008H35.992V173.248C35.992 194.837 33.2187 209.728 27.672 217.92H58.52ZM102.46 148.928H122.428V205.76L158.268 148.928H178.236V232H158.268V174.272L122.428 232H102.46V148.928ZM221.426 233.28C209.991 233.28 199.879 232.341 191.09 230.464V215.36C197.063 216.725 201.97 217.707 205.81 218.304C209.65 218.816 213.831 219.072 218.354 219.072C224.839 219.072 229.319 218.432 231.794 217.152C234.269 215.787 235.506 213.653 235.506 210.752V202.688C235.506 200.043 234.183 198.336 231.538 197.568C228.978 196.8 224.882 196.416 219.25 196.416H202.738V182.208H219.25C223.005 182.208 225.821 181.952 227.698 181.44C229.575 180.928 230.855 180.203 231.538 179.264C232.221 178.24 232.562 176.789 232.562 174.912V168.384C232.562 165.739 231.538 163.989 229.49 163.136C227.442 162.283 223.73 161.856 218.354 161.856C211.271 161.856 202.738 163.093 192.754 165.568V150.592C203.165 148.629 212.935 147.648 222.066 147.648C232.818 147.648 240.583 148.885 245.362 151.36C250.141 153.749 252.53 157.931 252.53 163.904V177.216C252.53 179.691 251.677 181.867 249.97 183.744C248.263 185.536 246.215 186.731 243.826 187.328V187.712C251.591 189.931 255.474 194.069 255.474 200.128V213.568C255.474 220.139 252.573 225.088 246.77 228.416C241.053 231.659 232.605 233.28 221.426 233.28ZM291.226 148.928H315.546L345.498 232H325.274L317.85 210.112H287.514L280.218 232H260.506L291.226 148.928ZM313.498 196.8L303.002 165.568H302.49L291.994 196.8H313.498ZM354.71 148.928H374.678V205.76L410.518 148.928H430.486V232H410.518V174.272L374.678 232H354.71V148.928ZM392.726 140.096C384.278 140.096 377.878 138.261 373.526 134.592C369.174 130.837 366.998 125.973 366.998 120H382.998C383.425 123.669 384.363 126.272 385.814 127.808C387.35 129.344 389.654 130.112 392.726 130.112C395.798 130.112 398.059 129.344 399.51 127.808C401.046 126.272 402.027 123.669 402.454 120H418.454C418.454 125.973 416.278 130.837 411.926 134.592C407.574 138.261 401.174 140.096 392.726 140.096ZM448.46 148.928H468.428V182.208H503.756V148.928H523.724V232H503.756V196.416H468.428V232H448.46V148.928Z" fill="white"/>
</svg>
