<svg width="19" height="19" viewBox="0 0 19 19" fill="none" xmlns="http://www.w3.org/2000/svg">
<path d="M16.7065 7.83149H2.32161V14.6652C2.32161 17.2279 3.22067 18.0821 5.91784 18.0821H13.1103C15.8075 18.0821 16.7065 17.2279 16.7065 14.6652V7.83149ZM18.0821 5.26884V6.12306C18.0821 7.0627 17.6056 7.83149 16.284 7.83149H2.79811C1.42256 7.83149 1 7.0627 1 6.12306V5.26884C1 4.3292 1.42256 3.56041 2.79811 3.56041H16.284C17.6056 3.56041 18.0821 4.3292 18.0821 5.26884ZM9.21738 3.56041H4.25459C4.10676 3.40807 4.02695 3.20715 4.03198 2.99999C4.03701 2.79284 4.12649 2.59563 4.28156 2.44993L5.55822 1.23694C5.7198 1.08514 5.93786 1 6.16508 1C6.39231 1 6.61037 1.08514 6.77195 1.23694L9.21738 3.56041ZM14.8185 3.56041H9.85572L12.3012 1.23694C12.4627 1.08514 12.6808 1 12.908 1C13.1352 1 13.3533 1.08514 13.5149 1.23694L14.7915 2.44993C15.1152 2.75745 15.1242 3.24435 14.8185 3.56041V3.56041Z" stroke="white" stroke-width="0.976119" stroke-miterlimit="10" stroke-linecap="round" stroke-linejoin="round"/>
<path d="M6.79004 7.83105V12.2217C6.79004 12.9051 7.58121 13.3066 8.18358 12.9393L9.02869 12.4097C9.17549 12.3178 9.3474 12.2689 9.52317 12.2689C9.69894 12.2689 9.87086 12.3178 10.0177 12.4097L10.8178 12.9222C10.9528 13.0077 11.1098 13.0568 11.2718 13.0642C11.4339 13.0716 11.5951 13.0371 11.7381 12.9643C11.8812 12.8916 12.0008 12.7832 12.0841 12.651C12.1674 12.5187 12.2114 12.3674 12.2114 12.2132V7.83105H6.79004Z" stroke="white" stroke-width="0.976119" stroke-miterlimit="10" stroke-linecap="round" stroke-linejoin="round"/>
</svg>
