<svg width="1440" height="771" viewBox="0 0 1440 771" fill="none" xmlns="http://www.w3.org/2000/svg">
<path d="M-66.6378 0C-95.7968 26.9142 -131.704 90.7228 -42.0623 130.644C-6.44762 146.504 14.6756 184.952 26.4301 230.961C60.182 363.073 -53.6438 525.51 33.1269 630.693V630.693C103.109 715.525 91.5424 758.911 77.0117 770" stroke="white" stroke-opacity="0.14"/>
<path d="M-15.6378 0C-44.7968 26.9142 -80.7043 90.7228 8.93772 130.644C44.5524 146.504 65.6756 184.952 77.4301 230.961C111.182 363.073 -2.64378 525.51 84.1269 630.693V630.693C154.109 715.525 142.542 758.911 128.012 770" stroke="white" stroke-opacity="0.14"/>
<path d="M35.3622 0C6.20324 26.9142 -29.7043 90.7228 59.9377 130.644C95.5524 146.504 116.676 184.952 128.43 230.961C162.182 363.073 48.3562 525.51 135.127 630.693V630.693C205.109 715.525 193.542 758.911 179.012 770" stroke="white" stroke-opacity="0.14"/>
<path d="M86.3622 0C57.2032 26.9142 21.2957 90.7228 110.938 130.644C146.552 146.504 167.676 184.952 179.43 230.961C213.182 363.073 99.3562 525.51 186.127 630.693V630.693C256.109 715.525 244.542 758.911 230.012 770" stroke="white" stroke-opacity="0.14"/>
<path d="M137.362 0C108.203 26.9142 72.2957 90.7228 161.938 130.644C197.552 146.504 218.676 184.952 230.43 230.961C264.182 363.073 150.356 525.51 237.127 630.693V630.693C307.109 715.525 295.542 758.911 281.012 770" stroke="white" stroke-opacity="0.14"/>
<path d="M188.362 0C159.203 26.9142 123.296 90.7228 212.938 130.644C248.552 146.504 269.676 184.952 281.43 230.961C315.182 363.073 201.356 525.51 288.127 630.693V630.693C358.109 715.525 346.542 758.911 332.012 770" stroke="white" stroke-opacity="0.14"/>
<path d="M239.362 0C210.203 26.9142 174.296 90.7228 263.938 130.644C299.552 146.504 320.676 184.952 332.43 230.961C366.182 363.073 252.356 525.51 339.127 630.693V630.693C409.109 715.525 397.542 758.911 383.012 770" stroke="white" stroke-opacity="0.14"/>
<path d="M290.362 0C261.203 26.9142 225.296 90.7228 314.938 130.644C350.552 146.504 371.676 184.952 383.43 230.961C417.182 363.073 303.356 525.51 390.127 630.693V630.693C460.109 715.525 448.542 758.911 434.012 770" stroke="white" stroke-opacity="0.14"/>
<path d="M341.362 0C312.203 26.9142 276.296 90.7228 365.938 130.644C401.552 146.504 422.676 184.952 434.43 230.961C468.182 363.073 354.356 525.51 441.127 630.693V630.693C511.109 715.525 499.542 758.911 485.012 770" stroke="white" stroke-opacity="0.14"/>
<path d="M392.362 0C363.203 26.9142 327.296 90.7228 416.938 130.644C452.552 146.504 473.676 184.952 485.43 230.961C519.182 363.073 405.356 525.51 492.127 630.693V630.693C562.109 715.525 550.542 758.911 536.012 770" stroke="white" stroke-opacity="0.14"/>
<path d="M443.362 0C414.203 26.9142 378.296 90.7228 467.938 130.644C503.552 146.504 524.676 184.952 536.43 230.961C570.182 363.073 456.356 525.51 543.127 630.693V630.693C613.109 715.525 601.542 758.911 587.012 770" stroke="white" stroke-opacity="0.14"/>
<path d="M494.362 0C465.203 26.9142 429.296 90.7228 518.938 130.644C554.552 146.504 575.676 184.952 587.43 230.961C621.182 363.073 507.356 525.51 594.127 630.693V630.693C664.109 715.525 652.542 758.911 638.012 770" stroke="white" stroke-opacity="0.14"/>
<path d="M545.362 0C516.203 26.9142 480.296 90.7228 569.938 130.644C605.552 146.504 626.676 184.952 638.43 230.961C672.182 363.073 558.356 525.51 645.127 630.693V630.693C715.109 715.525 703.542 758.911 689.012 770" stroke="white" stroke-opacity="0.14"/>
<path d="M596.362 0C567.203 26.9142 531.296 90.7228 620.938 130.644C656.552 146.504 677.676 184.952 689.43 230.961C723.182 363.073 609.356 525.51 696.127 630.693V630.693C766.109 715.525 754.542 758.911 740.012 770" stroke="white" stroke-opacity="0.14"/>
<path d="M647.362 0C618.203 26.9142 582.296 90.7228 671.938 130.644C707.552 146.504 728.676 184.952 740.43 230.961C774.182 363.073 660.356 525.51 747.127 630.693V630.693C817.109 715.525 805.542 758.911 791.012 770" stroke="white" stroke-opacity="0.14"/>
<path d="M698.362 0C669.203 26.9142 633.296 90.7228 722.938 130.644C758.552 146.504 779.676 184.952 791.43 230.961C825.182 363.073 711.356 525.51 798.127 630.693V630.693C868.109 715.525 856.542 758.911 842.012 770" stroke="white" stroke-opacity="0.14"/>
<path d="M749.362 0C720.203 26.9142 684.296 90.7228 773.938 130.644C809.552 146.504 830.676 184.952 842.43 230.961C876.182 363.073 762.356 525.51 849.127 630.693V630.693C919.109 715.525 907.542 758.911 893.012 770" stroke="white" stroke-opacity="0.14"/>
<path d="M800.362 0C771.203 26.9142 735.296 90.7228 824.938 130.644C860.552 146.504 881.676 184.952 893.43 230.961C927.182 363.073 813.356 525.51 900.127 630.693V630.693C970.109 715.525 958.542 758.911 944.012 770" stroke="white" stroke-opacity="0.14"/>
<path d="M851.362 0C822.203 26.9142 786.296 90.7228 875.938 130.644C911.552 146.504 932.676 184.952 944.43 230.961C978.182 363.073 864.356 525.51 951.127 630.693V630.693C1021.11 715.525 1009.54 758.911 995.012 770" stroke="white" stroke-opacity="0.14"/>
<path d="M902.362 0C873.203 26.9142 837.296 90.7228 926.938 130.644C962.552 146.504 983.676 184.952 995.43 230.961C1029.18 363.073 915.356 525.51 1002.13 630.693V630.693C1072.11 715.525 1060.54 758.911 1046.01 770" stroke="white" stroke-opacity="0.14"/>
<path d="M953.362 0C924.203 26.9142 888.296 90.7228 977.938 130.644C1013.55 146.504 1034.68 184.952 1046.43 230.961C1080.18 363.073 966.356 525.51 1053.13 630.693V630.693C1123.11 715.525 1111.54 758.911 1097.01 770" stroke="white" stroke-opacity="0.14"/>
<path d="M1004.36 0C975.203 26.9142 939.296 90.7228 1028.94 130.644C1064.55 146.504 1085.68 184.952 1097.43 230.961C1131.18 363.073 1017.36 525.51 1104.13 630.693V630.693C1174.11 715.525 1162.54 758.911 1148.01 770" stroke="white" stroke-opacity="0.14"/>
<path d="M1055.36 0C1026.2 26.9142 990.296 90.7228 1079.94 130.644C1115.55 146.504 1136.68 184.952 1148.43 230.961C1182.18 363.073 1068.36 525.51 1155.13 630.693V630.693C1225.11 715.525 1213.54 758.911 1199.01 770" stroke="white" stroke-opacity="0.14"/>
<path d="M1106.36 0C1077.2 26.9142 1041.3 90.7228 1130.94 130.644C1166.55 146.504 1187.68 184.952 1199.43 230.961C1233.18 363.073 1119.36 525.51 1206.13 630.693V630.693C1276.11 715.525 1264.54 758.911 1250.01 770" stroke="white" stroke-opacity="0.14"/>
<path d="M1157.36 0C1128.2 26.9142 1092.3 90.7228 1181.94 130.644C1217.55 146.504 1238.68 184.952 1250.43 230.961C1284.18 363.073 1170.36 525.51 1257.13 630.693V630.693C1327.11 715.525 1315.54 758.911 1301.01 770" stroke="white" stroke-opacity="0.14"/>
<path d="M1208.36 0C1179.2 26.9142 1143.3 90.7228 1232.94 130.644C1268.55 146.504 1289.68 184.952 1301.43 230.961C1335.18 363.073 1221.36 525.51 1308.13 630.693V630.693C1378.11 715.525 1366.54 758.911 1352.01 770" stroke="white" stroke-opacity="0.14"/>
<path d="M1259.36 0C1230.2 26.9142 1194.3 90.7228 1283.94 130.644C1319.55 146.504 1340.68 184.952 1352.43 230.961C1386.18 363.073 1272.36 525.51 1359.13 630.693V630.693C1429.11 715.525 1417.54 758.911 1403.01 770" stroke="white" stroke-opacity="0.14"/>
<path d="M1310.36 0C1281.2 26.9142 1245.3 90.7228 1334.94 130.644C1370.55 146.504 1391.68 184.952 1403.43 230.961C1437.18 363.073 1323.36 525.51 1410.13 630.693V630.693C1480.11 715.525 1468.54 758.911 1454.01 770" stroke="white" stroke-opacity="0.14"/>
</svg>
