<svg width="180" height="31" viewBox="0 0 180 31" fill="none" xmlns="http://www.w3.org/2000/svg">
<g clip-path="url(#clip0_91_75)">
<path d="M62.0568 8.29749C62.707 8.68709 63.242 9.24154 63.6072 9.90433C63.9724 10.5671 64.1548 11.3146 64.1358 12.0705V12.3586H59.1941V12.2644C59.1949 12.0373 59.1455 11.8129 59.0495 11.607C58.9534 11.4011 58.813 11.2189 58.6383 11.0732C58.1824 10.7221 57.6118 10.5522 57.0374 10.5967C56.4827 10.5679 55.9294 10.6744 55.4254 10.907C55.271 10.9694 55.1372 11.0736 55.039 11.2077C54.9408 11.3418 54.8821 11.5005 54.8695 11.6661C54.8769 11.8862 54.9557 12.098 55.0939 12.2697C55.2322 12.4415 55.4226 12.5641 55.6366 12.619C56.4354 12.9035 57.2575 13.1185 58.0935 13.2617C59.198 13.4754 60.2878 13.7585 61.3564 14.1094C62.2033 14.4037 62.9662 14.8979 63.5799 15.5498C64.2427 16.2943 64.593 17.2644 64.5582 18.2591C64.5582 20.1982 63.9004 21.635 62.5849 22.5695C61.2694 23.504 59.5295 23.9731 57.3653 23.9768C54.8009 23.9768 52.8054 23.5483 51.3787 22.6914C49.952 21.8345 49.2404 20.3183 49.2442 18.1428H54.2469C54.2469 18.9683 54.4637 19.5223 54.8917 19.8049C55.5095 20.1249 56.2039 20.2687 56.8984 20.2204C57.4622 20.2366 58.0251 20.1636 58.566 20.0043C58.7623 19.9579 58.936 19.8443 59.0569 19.6833C59.1778 19.5223 59.2381 19.3242 59.2275 19.1234C59.2166 18.917 59.1402 18.7193 59.0093 18.559C58.8785 18.3987 58.6999 18.284 58.4993 18.2314C57.7258 17.9536 56.9299 17.7423 56.1202 17.5998C54.9901 17.3756 53.8759 17.0776 52.785 16.7078C51.9034 16.3949 51.1142 15.8674 50.4893 15.1731C49.8047 14.3646 49.4549 13.3264 49.511 12.27C49.461 11.4813 49.6296 10.6942 49.9982 9.99455C50.3668 9.29494 50.9213 8.70978 51.601 8.30303C53.2129 7.39893 55.0446 6.95785 56.8928 7.02875C58.6998 6.95727 60.4902 7.39713 62.0568 8.29749Z" fill="white"/>
<path d="M67.4541 23.6889V7.31152H72.7348V23.6889H67.4541Z" fill="white"/>
<path d="M76.5088 7.31152H81.7839V19.5004H90.2164V23.6889H76.5088V7.31152Z" fill="white"/>
<path d="M92.4404 7.31152H106.648V11.2397H97.7156V13.5001H105.359V17.262H97.7156V19.7608H106.837V23.6889H92.4404V7.31152Z" fill="white"/>
<path d="M114.152 23.6889L108.321 7.31152H113.958L117.254 18.2593H117.349L120.684 7.31152H126.081L120.278 23.6889H114.152Z" fill="white"/>
<path d="M137.915 23.6889L137.22 21.3786H131.467L130.772 23.6889H125.375L131.373 7.31152H137.487L143.524 23.6889H137.915ZM132.568 17.7164H136.125L134.402 11.8823H134.308L132.568 17.7164Z" fill="white"/>
<path d="M157.237 23.6889L150.333 15.7384V23.6889H145.486V7.31152H150.094L156.998 15.3783V7.31152H161.868V23.6889H157.237Z" fill="white"/>
<path d="M177.471 8.29739C178.12 8.68768 178.654 9.24243 179.019 9.90518C179.383 10.5679 179.564 11.315 179.545 12.0704V12.3585H174.603V12.2643C174.607 12.0394 174.562 11.8163 174.471 11.6106C174.38 11.4048 174.245 11.2214 174.075 11.0731C173.619 10.722 173.049 10.5521 172.474 10.5966C171.919 10.5678 171.366 10.6743 170.862 10.9069C170.707 10.9688 170.573 11.0728 170.475 11.207C170.377 11.3412 170.318 11.5002 170.306 11.6659C170.312 11.8856 170.39 12.0973 170.527 12.2691C170.665 12.441 170.854 12.5638 171.068 12.6189C171.869 12.9032 172.692 13.1183 173.53 13.2616C174.633 13.4759 175.721 13.7591 176.788 14.1093C177.635 14.4036 178.397 14.8978 179.011 15.5497C179.674 16.2942 180.024 17.2642 179.989 18.259C179.989 20.1981 179.333 21.6349 178.022 22.5694C176.71 23.5039 174.953 23.973 172.752 23.9767C170.188 23.9767 168.194 23.5482 166.771 22.6913C165.348 21.8344 164.64 20.3182 164.648 18.1427H169.65C169.65 18.9682 169.867 19.5222 170.295 19.8048C170.913 20.1243 171.607 20.2681 172.302 20.2203C172.866 20.2358 173.428 20.1629 173.969 20.0042C174.165 19.9567 174.337 19.8426 174.457 19.6818C174.577 19.5209 174.636 19.3233 174.625 19.1233C174.614 18.9169 174.538 18.7192 174.407 18.5589C174.276 18.3986 174.098 18.2839 173.897 18.2313C173.124 17.9535 172.328 17.7422 171.518 17.5997C170.388 17.374 169.274 17.076 168.183 16.7077C167.303 16.3949 166.515 15.8672 165.893 15.173C165.204 14.3664 164.852 13.3274 164.909 12.2698C164.86 11.4814 165.029 10.6947 165.398 9.99531C165.766 9.29593 166.32 8.7106 166.999 8.30293C168.611 7.39883 170.442 6.95775 172.291 7.02865C174.103 6.95582 175.899 7.39567 177.471 8.29739Z" fill="white"/>
<path d="M5.42524 26.7691L0 10.3031L14.1523 0.03125L33.9522 14.3698L31.3007 22.697H29.5942L32.1512 15.0235L14.0745 1.94822L1.95664 10.9015L7.10395 26.7691H5.42524Z" fill="white"/>
<path d="M17.6101 7.78767L16.3038 6.7627L5.83691 14.3696L11.1176 30.8467L28.5996 30.9686L29.0109 29.3176H12.4072L7.66571 15.0733L17.6101 7.78767Z" fill="white"/>
<path d="M23.4078 3.68797L22.0014 2.68516L25.5812 0.0811768L39.6501 10.2478L34.2694 26.7692H14.1637L13.7246 25.2179H33.102L37.7991 10.9237L25.5812 2.12004L23.4078 3.68797Z" fill="white"/>
</g>
<defs>
<clipPath id="clip0_91_75">
<rect width="180" height="30.9375" fill="white" transform="translate(0 0.03125)"/>
</clipPath>
</defs>
</svg>
