<svg width="581" height="87" viewBox="0 0 581 87" fill="none" xmlns="http://www.w3.org/2000/svg">
<path d="M31.84 86.28C23.904 86.28 14.0907 85.512 2.4 83.976V68.744C16.9067 70.9627 26.8053 72.072 32.096 72.072C43.1893 72.072 48.736 69.2133 48.736 63.496V58.12C48.736 55.3893 47.9253 53.2987 46.304 51.848C44.768 50.3973 41.952 49.672 37.856 49.672H28.128C9.86667 49.672 0.736 42.4187 0.736 27.912V21.768C0.736 14.5147 3.76533 9.18133 9.824 5.768C15.8827 2.35466 25.4827 0.647995 38.624 0.647995C45.4507 0.647995 54.112 1.20266 64.608 2.312V17.16C51.7227 15.624 42.848 14.856 37.984 14.856C31.2427 14.856 26.72 15.4107 24.416 16.52C21.9413 17.7147 20.704 19.592 20.704 22.152V28.04C20.704 32.392 24.3733 34.568 31.712 34.568H41.696C51.168 34.568 58.0373 36.3173 62.304 39.816C66.5707 43.3147 68.704 48.648 68.704 55.816V61.32C68.704 71.2187 65.1627 77.9173 58.08 81.416C54.6667 83.208 50.8693 84.4453 46.688 85.128C42.592 85.896 37.6427 86.28 31.84 86.28ZM79.385 1.92799H99.353V85H79.385V1.92799ZM114.06 1.92799H134.028V70.792H174.86V85H114.06V1.92799ZM185.11 1.92799H248.47V16.136H205.078V35.208H244.246V49.416H205.078V70.792H249.75V85H185.11V1.92799ZM251.075 1.92799H271.299L293.571 68.36H294.083L316.355 1.92799H336.067L305.347 85H280.899L251.075 1.92799ZM363.851 1.92799H388.171L418.123 85H397.899L390.475 63.112H360.139L352.843 85H333.131L363.851 1.92799ZM386.123 49.8L375.627 18.568H375.115L364.619 49.8H386.123ZM424.135 1.92799H444.359L484.551 58.632V1.92799H502.343V85H482.119L441.927 27.4V85H424.135V1.92799ZM543.94 86.28C536.004 86.28 526.191 85.512 514.5 83.976V68.744C529.007 70.9627 538.905 72.072 544.196 72.072C555.289 72.072 560.836 69.2133 560.836 63.496V58.12C560.836 55.3893 560.025 53.2987 558.404 51.848C556.868 50.3973 554.052 49.672 549.956 49.672H540.228C521.967 49.672 512.836 42.4187 512.836 27.912V21.768C512.836 14.5147 515.865 9.18133 521.924 5.768C527.983 2.35466 537.583 0.647995 550.724 0.647995C557.551 0.647995 566.212 1.20266 576.708 2.312V17.16C563.823 15.624 554.948 14.856 550.084 14.856C543.343 14.856 538.82 15.4107 536.516 16.52C534.041 17.7147 532.804 19.592 532.804 22.152V28.04C532.804 32.392 536.473 34.568 543.812 34.568H553.796C563.268 34.568 570.137 36.3173 574.404 39.816C578.671 43.3147 580.804 48.648 580.804 55.816V61.32C580.804 71.2187 577.263 77.9173 570.18 81.416C566.767 83.208 562.969 84.4453 558.788 85.128C554.692 85.896 549.743 86.28 543.94 86.28Z" fill="white"/>
</svg>
