<svg width="949" height="285" viewBox="0 0 949 285" fill="none" xmlns="http://www.w3.org/2000/svg">
<path d="M214.809 21.7549C214.885 20.8901 216.149 20.8901 216.226 21.7549C216.256 22.0982 216.529 22.3703 216.872 22.4007C217.737 22.4773 217.737 23.7413 216.872 23.8178C216.529 23.8482 216.256 24.1204 216.226 24.4637C216.149 25.3285 214.885 25.3285 214.809 24.4637C214.779 24.1204 214.506 23.8482 214.163 23.8178C213.298 23.7413 213.298 22.4773 214.163 22.4007C214.506 22.3703 214.779 22.0982 214.809 21.7549Z" fill="white"/>
<path d="M535.422 263.656C535.499 262.791 536.763 262.791 536.839 263.656C536.87 264 537.142 264.272 537.485 264.302C538.35 264.379 538.35 265.643 537.485 265.719C537.142 265.75 536.87 266.022 536.839 266.365C536.763 267.23 535.499 267.23 535.422 266.365C535.392 266.022 535.12 265.75 534.776 265.719C533.912 265.643 533.912 264.379 534.776 264.302C535.12 264.272 535.392 264 535.422 263.656Z" fill="white"/>
<path d="M526.303 33.2744C526.38 32.4096 527.644 32.4096 527.72 33.2744C527.751 33.6177 528.023 33.8899 528.366 33.9203C529.231 33.9968 529.231 35.2608 528.366 35.3374C528.023 35.3677 527.751 35.6399 527.72 35.9832C527.644 36.848 526.38 36.848 526.303 35.9832C526.273 35.6399 526.001 35.3677 525.657 35.3374C524.792 35.2608 524.792 33.9968 525.657 33.9203C526.001 33.8899 526.273 33.6177 526.303 33.2744Z" fill="white"/>
<path d="M200.409 268.455C200.485 267.59 201.749 267.59 201.826 268.455C201.856 268.798 202.128 269.071 202.471 269.101C203.336 269.177 203.336 270.441 202.471 270.518C202.128 270.548 201.856 270.821 201.826 271.164C201.749 272.029 200.485 272.029 200.409 271.164C200.378 270.821 200.106 270.548 199.763 270.518C198.898 270.441 198.898 269.177 199.763 269.101C200.106 269.071 200.378 268.798 200.409 268.455Z" fill="white"/>
<path d="M293.041 268.455C293.118 267.59 294.382 267.59 294.458 268.455C294.489 268.798 294.761 269.071 295.104 269.101C295.969 269.177 295.969 270.441 295.104 270.518C294.761 270.548 294.489 270.821 294.458 271.164C294.382 272.029 293.118 272.029 293.041 271.164C293.011 270.821 292.739 270.548 292.396 270.518C291.531 270.441 291.531 269.177 292.396 269.101C292.739 269.071 293.011 268.798 293.041 268.455Z" fill="white"/>
<path d="M407.651 274.005C407.727 273.14 408.991 273.14 409.068 274.005C409.098 274.348 409.37 274.62 409.714 274.651C410.578 274.727 410.578 275.991 409.714 276.068C409.37 276.098 409.098 276.37 409.068 276.714C408.991 277.578 407.727 277.578 407.651 276.714C407.62 276.37 407.348 276.098 407.005 276.068C406.14 275.991 406.14 274.727 407.005 274.651C407.348 274.62 407.62 274.348 407.651 274.005Z" fill="white"/>
<path d="M130.651 166.005C130.727 165.14 131.991 165.14 132.068 166.005C132.098 166.348 132.37 166.62 132.714 166.651C133.578 166.727 133.578 167.991 132.714 168.068C132.37 168.098 132.098 168.37 132.068 168.714C131.991 169.578 130.727 169.578 130.651 168.714C130.62 168.37 130.348 168.098 130.005 168.068C129.14 167.991 129.14 166.727 130.005 166.651C130.348 166.62 130.62 166.348 130.651 166.005Z" fill="white"/>
<path d="M80.6507 63.0049C80.7273 62.1401 81.9913 62.1401 82.0678 63.0049C82.0982 63.3482 82.3704 63.6203 82.7137 63.6507C83.5785 63.7273 83.5785 64.9913 82.7137 65.0678C82.3704 65.0982 82.0982 65.3704 82.0678 65.7137C81.9913 66.5785 80.7273 66.5785 80.6507 65.7137C80.6203 65.3704 80.3482 65.0982 80.0049 65.0678C79.1401 64.9913 79.1401 63.7273 80.0049 63.6507C80.3482 63.6203 80.6203 63.3482 80.6507 63.0049Z" fill="white"/>
<path d="M44.6507 190.005C44.7273 189.14 45.9913 189.14 46.0678 190.005C46.0982 190.348 46.3704 190.62 46.7137 190.651C47.5785 190.727 47.5785 191.991 46.7137 192.068C46.3704 192.098 46.0982 192.37 46.0678 192.714C45.9913 193.578 44.7273 193.578 44.6507 192.714C44.6203 192.37 44.3482 192.098 44.0049 192.068C43.1401 191.991 43.1401 190.727 44.0049 190.651C44.3482 190.62 44.6203 190.348 44.6507 190.005Z" fill="white"/>
<path d="M44.6507 253.005C44.7273 252.14 45.9913 252.14 46.0678 253.005C46.0982 253.348 46.3704 253.62 46.7137 253.651C47.5785 253.727 47.5785 254.991 46.7137 255.068C46.3704 255.098 46.0982 255.37 46.0678 255.714C45.9913 256.578 44.7273 256.578 44.6507 255.714C44.6203 255.37 44.3482 255.098 44.0049 255.068C43.1401 254.991 43.1401 253.727 44.0049 253.651C44.3482 253.62 44.6203 253.348 44.6507 253.005Z" fill="white"/>
<path d="M8.65072 31.0049C8.72727 30.1401 9.99128 30.1401 10.0678 31.0049C10.0982 31.3482 10.3704 31.6203 10.7137 31.6507C11.5785 31.7273 11.5785 32.9913 10.7137 33.0678C10.3704 33.0982 10.0982 33.3704 10.0678 33.7137C9.99128 34.5785 8.72727 34.5785 8.65072 33.7137C8.62033 33.3704 8.3482 33.0982 8.00489 33.0678C7.14008 32.9913 7.14008 31.7273 8.00489 31.6507C8.3482 31.6203 8.62033 31.3482 8.65072 31.0049Z" fill="white"/>
<path d="M80.6507 8.00489C80.7273 7.14008 81.9913 7.14008 82.0678 8.00489C82.0982 8.3482 82.3704 8.62033 82.7137 8.65072C83.5785 8.72727 83.5785 9.99128 82.7137 10.0678C82.3704 10.0982 82.0982 10.3704 82.0678 10.7137C81.9913 11.5785 80.7273 11.5785 80.6507 10.7137C80.6203 10.3704 80.3482 10.0982 80.0049 10.0678C79.1401 9.99128 79.1401 8.72727 80.0049 8.65072C80.3482 8.62033 80.6203 8.3482 80.6507 8.00489Z" fill="white"/>
<path d="M170.651 126.867C170.727 126.002 171.991 126.002 172.068 126.867C172.098 127.211 172.37 127.483 172.714 127.513C173.578 127.59 173.578 128.854 172.714 128.93C172.37 128.961 172.098 129.233 172.068 129.576C171.991 130.441 170.727 130.441 170.651 129.576C170.62 129.233 170.348 128.961 170.005 128.93C169.14 128.854 169.14 127.59 170.005 127.513C170.348 127.483 170.62 127.211 170.651 126.867Z" fill="white"/>
<path d="M507.584 148.465C507.661 147.6 508.925 147.6 509.001 148.465C509.032 148.808 509.304 149.08 509.647 149.111C510.512 149.187 510.512 150.451 509.647 150.528C509.304 150.558 509.032 150.83 509.001 151.174C508.925 152.038 507.661 152.038 507.584 151.174C507.554 150.83 507.282 150.558 506.938 150.528C506.074 150.451 506.074 149.187 506.938 149.111C507.282 149.08 507.554 148.808 507.584 148.465Z" fill="white"/>
<path d="M794.121 48.6328C794.198 47.768 795.462 47.768 795.539 48.6328C795.569 48.9761 795.841 49.2483 796.184 49.2787C797.049 49.3552 797.049 50.6192 796.184 50.6958C795.841 50.7261 795.569 50.9983 795.539 51.3416C795.462 52.2064 794.198 52.2064 794.121 51.3416C794.091 50.9983 793.819 50.7261 793.476 50.6958C792.611 50.6192 792.611 49.3552 793.476 49.2787C793.819 49.2483 794.091 48.9761 794.121 48.6328Z" fill="white"/>
<path d="M598.443 186.18C598.503 185.493 599.508 185.493 599.569 186.18C599.593 186.453 599.81 186.669 600.082 186.694C600.77 186.754 600.77 187.759 600.082 187.82C599.81 187.844 599.593 188.06 599.569 188.333C599.508 189.021 598.503 189.021 598.443 188.333C598.418 188.06 598.202 187.844 597.929 187.82C597.242 187.759 597.242 186.754 597.929 186.694C598.202 186.669 598.418 186.453 598.443 186.18Z" fill="white"/>
<path d="M442.456 18.1929C442.517 17.5055 443.522 17.5055 443.583 18.1929C443.607 18.4658 443.823 18.6821 444.096 18.7063C444.783 18.7671 444.783 19.7719 444.096 19.8327C443.823 19.8569 443.607 20.0732 443.583 20.3461C443.522 21.0335 442.517 21.0335 442.456 20.3461C442.432 20.0732 442.216 19.8569 441.943 19.8327C441.256 19.7719 441.256 18.7671 441.943 18.7063C442.216 18.6821 442.432 18.4658 442.456 18.1929Z" fill="white"/>
<path d="M866.876 20.3629C866.937 19.6754 867.942 19.6754 868.003 20.3629C868.027 20.6357 868.243 20.8521 868.516 20.8762C869.203 20.9371 869.203 21.9418 868.516 22.0026C868.243 22.0268 868.027 22.2431 868.003 22.516C867.942 23.2034 866.937 23.2034 866.876 22.516C866.852 22.2431 866.636 22.0268 866.363 22.0026C865.675 21.9418 865.675 20.9371 866.363 20.8762C866.636 20.8521 866.852 20.6357 866.876 20.3629Z" fill="white"/>
<path d="M845.876 99.3629C845.937 98.6754 846.942 98.6754 847.003 99.3629C847.027 99.6357 847.243 99.8521 847.516 99.8762C848.203 99.9371 848.203 100.942 847.516 101.003C847.243 101.027 847.027 101.243 847.003 101.516C846.942 102.203 845.937 102.203 845.876 101.516C845.852 101.243 845.636 101.027 845.363 101.003C844.675 100.942 844.675 99.9371 845.363 99.8762C845.636 99.8521 845.852 99.6357 845.876 99.3629Z" fill="white"/>
<path d="M871.876 149.363C871.937 148.675 872.942 148.675 873.003 149.363C873.027 149.636 873.243 149.852 873.516 149.876C874.203 149.937 874.203 150.942 873.516 151.003C873.243 151.027 873.027 151.243 873.003 151.516C872.942 152.203 871.937 152.203 871.876 151.516C871.852 151.243 871.636 151.027 871.363 151.003C870.675 150.942 870.675 149.937 871.363 149.876C871.636 149.852 871.852 149.636 871.876 149.363Z" fill="white"/>
<path d="M830.876 227.363C830.937 226.675 831.942 226.675 832.003 227.363C832.027 227.636 832.243 227.852 832.516 227.876C833.203 227.937 833.203 228.942 832.516 229.003C832.243 229.027 832.027 229.243 832.003 229.516C831.942 230.203 830.937 230.203 830.876 229.516C830.852 229.243 830.636 229.027 830.363 229.003C829.675 228.942 829.675 227.937 830.363 227.876C830.636 227.852 830.852 227.636 830.876 227.363Z" fill="white"/>
<path d="M940.876 108.363C940.937 107.675 941.942 107.675 942.003 108.363C942.027 108.636 942.243 108.852 942.516 108.876C943.203 108.937 943.203 109.942 942.516 110.003C942.243 110.027 942.027 110.243 942.003 110.516C941.942 111.203 940.937 111.203 940.876 110.516C940.852 110.243 940.636 110.027 940.363 110.003C939.675 109.942 939.675 108.937 940.363 108.876C940.636 108.852 940.852 108.636 940.876 108.363Z" fill="white"/>
<path d="M940.876 244.363C940.937 243.675 941.942 243.675 942.003 244.363C942.027 244.636 942.243 244.852 942.516 244.876C943.203 244.937 943.203 245.942 942.516 246.003C942.243 246.027 942.027 246.243 942.003 246.516C941.942 247.203 940.937 247.203 940.876 246.516C940.852 246.243 940.636 246.027 940.363 246.003C939.675 245.942 939.675 244.937 940.363 244.876C940.636 244.852 940.852 244.636 940.876 244.363Z" fill="white"/>
</svg>
