<svg width="393" height="3611" viewBox="0 0 393 3611" fill="none" xmlns="http://www.w3.org/2000/svg">
<path d="M343.723 2180.78C343.807 2179.83 345.193 2179.83 345.277 2180.78L345.296 2181C345.33 2181.37 345.628 2181.67 346.004 2181.7L346.222 2181.72C347.171 2181.81 347.171 2183.19 346.222 2183.28L346.004 2183.3C345.628 2183.33 345.33 2183.63 345.296 2184L345.277 2184.22C345.193 2185.17 343.807 2185.17 343.723 2184.22L343.704 2184C343.67 2183.63 343.372 2183.33 342.996 2183.3L342.778 2183.28C341.829 2183.19 341.829 2181.81 342.778 2181.72L342.996 2181.7C343.372 2181.67 343.67 2181.37 343.704 2181L343.723 2180.78Z" fill="white"/>
<path d="M35.723 1777.78C35.807 1776.83 37.193 1776.83 37.277 1777.78L37.2962 1778C37.3296 1778.37 37.628 1778.67 38.0044 1778.7L38.2223 1778.72C39.1706 1778.81 39.1706 1780.19 38.2223 1780.28L38.0044 1780.3C37.628 1780.33 37.3296 1780.63 37.2962 1781L37.277 1781.22C37.193 1782.17 35.807 1782.17 35.723 1781.22L35.7038 1781C35.6704 1780.63 35.372 1780.33 34.9956 1780.3L34.7777 1780.28C33.8294 1780.19 33.8294 1778.81 34.7777 1778.72L34.9956 1778.7C35.372 1778.67 35.6704 1778.37 35.7038 1778L35.723 1777.78Z" fill="white"/>
<path d="M343.723 1631.78C343.807 1630.83 345.193 1630.83 345.277 1631.78L345.296 1632C345.33 1632.37 345.628 1632.67 346.004 1632.7L346.222 1632.72C347.171 1632.81 347.171 1634.19 346.222 1634.28L346.004 1634.3C345.628 1634.33 345.33 1634.63 345.296 1635L345.277 1635.22C345.193 1636.17 343.807 1636.17 343.723 1635.22L343.704 1635C343.67 1634.63 343.372 1634.33 342.996 1634.3L342.778 1634.28C341.829 1634.19 341.829 1632.81 342.778 1632.72L342.996 1632.7C343.372 1632.67 343.67 1632.37 343.704 1632L343.723 1631.78Z" fill="white"/>
<path d="M25.723 2159.78C25.807 2158.83 27.193 2158.83 27.277 2159.78L27.2962 2160C27.3296 2160.37 27.628 2160.67 28.0044 2160.7L28.2223 2160.72C29.1706 2160.81 29.1706 2162.19 28.2223 2162.28L28.0044 2162.3C27.628 2162.33 27.3296 2162.63 27.2962 2163L27.277 2163.22C27.193 2164.17 25.807 2164.17 25.723 2163.22L25.7038 2163C25.6704 2162.63 25.372 2162.33 24.9956 2162.3L24.7777 2162.28C23.8294 2162.19 23.8294 2160.81 24.7777 2160.72L24.9956 2160.7C25.372 2160.67 25.6704 2160.37 25.7038 2160L25.723 2159.78Z" fill="white"/>
<path d="M381.723 1767.78C381.807 1766.83 383.193 1766.83 383.277 1767.78L383.296 1768C383.33 1768.37 383.628 1768.67 384.004 1768.7L384.222 1768.72C385.171 1768.81 385.171 1770.19 384.222 1770.28L384.004 1770.3C383.628 1770.33 383.33 1770.63 383.296 1771L383.277 1771.22C383.193 1772.17 381.807 1772.17 381.723 1771.22L381.704 1771C381.67 1770.63 381.372 1770.33 380.996 1770.3L380.778 1770.28C379.829 1770.19 379.829 1768.81 380.778 1768.72L380.996 1768.7C381.372 1768.67 381.67 1768.37 381.704 1768L381.723 1767.78Z" fill="white"/>
<path d="M111.723 1548.78C111.807 1547.83 113.193 1547.83 113.277 1548.78L113.296 1549C113.33 1549.37 113.628 1549.67 114.004 1549.7L114.222 1549.72C115.171 1549.81 115.171 1551.19 114.222 1551.28L114.004 1551.3C113.628 1551.33 113.33 1551.63 113.296 1552L113.277 1552.22C113.193 1553.17 111.807 1553.17 111.723 1552.22L111.704 1552C111.67 1551.63 111.372 1551.33 110.996 1551.3L110.778 1551.28C109.829 1551.19 109.829 1549.81 110.778 1549.72L110.996 1549.7C111.372 1549.67 111.67 1549.37 111.704 1549L111.723 1548.78Z" fill="white"/>
<path d="M332.723 1040.78C332.807 1039.83 334.193 1039.83 334.277 1040.78L334.296 1041C334.33 1041.37 334.628 1041.67 335.004 1041.7L335.222 1041.72C336.171 1041.81 336.171 1043.19 335.222 1043.28L335.004 1043.3C334.628 1043.33 334.33 1043.63 334.296 1044L334.277 1044.22C334.193 1045.17 332.807 1045.17 332.723 1044.22L332.704 1044C332.67 1043.63 332.372 1043.33 331.996 1043.3L331.778 1043.28C330.829 1043.19 330.829 1041.81 331.778 1041.72L331.996 1041.7C332.372 1041.67 332.67 1041.37 332.704 1041L332.723 1040.78Z" fill="white"/>
<path d="M275.723 1019.78C275.807 1018.83 277.193 1018.83 277.277 1019.78L277.296 1020C277.33 1020.37 277.628 1020.67 278.004 1020.7L278.222 1020.72C279.171 1020.81 279.171 1022.19 278.222 1022.28L278.004 1022.3C277.628 1022.33 277.33 1022.63 277.296 1023L277.277 1023.22C277.193 1024.17 275.807 1024.17 275.723 1023.22L275.704 1023C275.67 1022.63 275.372 1022.33 274.996 1022.3L274.778 1022.28C273.829 1022.19 273.829 1020.81 274.778 1020.72L274.996 1020.7C275.372 1020.67 275.67 1020.37 275.704 1020L275.723 1019.78Z" fill="white"/>
<path d="M35.723 809.778C35.807 808.829 37.193 808.829 37.277 809.778L37.2962 809.996C37.3296 810.372 37.628 810.67 38.0044 810.704L38.2223 810.723C39.1706 810.807 39.1706 812.193 38.2223 812.277L38.0044 812.296C37.628 812.33 37.3296 812.628 37.2962 813.004L37.277 813.222C37.193 814.171 35.807 814.171 35.723 813.222L35.7038 813.004C35.6704 812.628 35.372 812.33 34.9956 812.296L34.7777 812.277C33.8294 812.193 33.8294 810.807 34.7777 810.723L34.9956 810.704C35.372 810.67 35.6704 810.372 35.7038 809.996L35.723 809.778Z" fill="white"/>
<path d="M301.723 129.778C301.807 128.829 303.193 128.829 303.277 129.778L303.296 129.996C303.33 130.372 303.628 130.67 304.004 130.704L304.222 130.723C305.171 130.807 305.171 132.193 304.222 132.277L304.004 132.296C303.628 132.33 303.33 132.628 303.296 133.004L303.277 133.222C303.193 134.171 301.807 134.171 301.723 133.222L301.704 133.004C301.67 132.628 301.372 132.33 300.996 132.296L300.778 132.277C299.829 132.193 299.829 130.807 300.778 130.723L300.996 130.704C301.372 130.67 301.67 130.372 301.704 129.996L301.723 129.778Z" fill="white"/>
<path d="M366.723 60.7777C366.807 59.8294 368.193 59.8294 368.277 60.7777L368.296 60.9956C368.33 61.372 368.628 61.6704 369.004 61.7038L369.222 61.723C370.171 61.807 370.171 63.193 369.222 63.277L369.004 63.2962C368.628 63.3296 368.33 63.628 368.296 64.0044L368.277 64.2223C368.193 65.1706 366.807 65.1706 366.723 64.2223L366.704 64.0044C366.67 63.628 366.372 63.3296 365.996 63.2962L365.778 63.277C364.829 63.193 364.829 61.807 365.778 61.723L365.996 61.7038C366.372 61.6704 366.67 61.372 366.704 60.9956L366.723 60.7777Z" fill="white"/>
<path d="M85.723 8.77774C85.807 7.82944 87.193 7.82944 87.277 8.77774L87.2962 8.99557C87.3296 9.37202 87.628 9.67043 88.0044 9.70376L88.2223 9.72304C89.1706 9.80698 89.1706 11.193 88.2223 11.277L88.0044 11.2962C87.628 11.3296 87.3296 11.628 87.2962 12.0044L87.277 12.2223C87.193 13.1706 85.807 13.1706 85.723 12.2223L85.7038 12.0044C85.6704 11.628 85.372 11.3296 84.9956 11.2962L84.7777 11.277C83.8294 11.193 83.8294 9.80698 84.7777 9.72304L84.9956 9.70376C85.372 9.67043 85.6704 9.37202 85.7038 8.99557L85.723 8.77774Z" fill="white"/>
<path d="M352.723 2394.78C352.807 2393.83 354.193 2393.83 354.277 2394.78L354.296 2395C354.33 2395.37 354.628 2395.67 355.004 2395.7L355.222 2395.72C356.171 2395.81 356.171 2397.19 355.222 2397.28L355.004 2397.3C354.628 2397.33 354.33 2397.63 354.296 2398L354.277 2398.22C354.193 2399.17 352.807 2399.17 352.723 2398.22L352.704 2398C352.67 2397.63 352.372 2397.33 351.996 2397.3L351.778 2397.28C350.829 2397.19 350.829 2395.81 351.778 2395.72L351.996 2395.7C352.372 2395.67 352.67 2395.37 352.704 2395L352.723 2394.78Z" fill="white"/>
<path d="M67.723 2565.78C67.807 2564.83 69.193 2564.83 69.277 2565.78L69.2962 2566C69.3296 2566.37 69.628 2566.67 70.0044 2566.7L70.2223 2566.72C71.1706 2566.81 71.1706 2568.19 70.2223 2568.28L70.0044 2568.3C69.628 2568.33 69.3296 2568.63 69.2962 2569L69.277 2569.22C69.193 2570.17 67.807 2570.17 67.723 2569.22L67.7038 2569C67.6704 2568.63 67.372 2568.33 66.9956 2568.3L66.7777 2568.28C65.8294 2568.19 65.8294 2566.81 66.7777 2566.72L66.9956 2566.7C67.372 2566.67 67.6704 2566.37 67.7038 2566L67.723 2565.78Z" fill="white"/>
<path d="M341.723 2654.78C341.807 2653.83 343.193 2653.83 343.277 2654.78L343.296 2655C343.33 2655.37 343.628 2655.67 344.004 2655.7L344.222 2655.72C345.171 2655.81 345.171 2657.19 344.222 2657.28L344.004 2657.3C343.628 2657.33 343.33 2657.63 343.296 2658L343.277 2658.22C343.193 2659.17 341.807 2659.17 341.723 2658.22L341.704 2658C341.67 2657.63 341.372 2657.33 340.996 2657.3L340.778 2657.28C339.829 2657.19 339.829 2655.81 340.778 2655.72L340.996 2655.7C341.372 2655.67 341.67 2655.37 341.704 2655L341.723 2654.78Z" fill="white"/>
<path d="M338.723 2943.78C338.807 2942.83 340.193 2942.83 340.277 2943.78L340.296 2944C340.33 2944.37 340.628 2944.67 341.004 2944.7L341.222 2944.72C342.171 2944.81 342.171 2946.19 341.222 2946.28L341.004 2946.3C340.628 2946.33 340.33 2946.63 340.296 2947L340.277 2947.22C340.193 2948.17 338.807 2948.17 338.723 2947.22L338.704 2947C338.67 2946.63 338.372 2946.33 337.996 2946.3L337.778 2946.28C336.829 2946.19 336.829 2944.81 337.778 2944.72L337.996 2944.7C338.372 2944.67 338.67 2944.37 338.704 2944L338.723 2943.78Z" fill="white"/>
<path d="M9.72304 2840.78C9.80698 2839.83 11.193 2839.83 11.277 2840.78L11.2962 2841C11.3296 2841.37 11.628 2841.67 12.0044 2841.7L12.2223 2841.72C13.1706 2841.81 13.1706 2843.19 12.2223 2843.28L12.0044 2843.3C11.628 2843.33 11.3296 2843.63 11.2962 2844L11.277 2844.22C11.193 2845.17 9.80698 2845.17 9.72304 2844.22L9.70376 2844C9.67043 2843.63 9.37202 2843.33 8.99557 2843.3L8.77774 2843.28C7.82944 2843.19 7.82944 2841.81 8.77774 2841.72L8.99557 2841.7C9.37202 2841.67 9.67043 2841.37 9.70376 2841L9.72304 2840.78Z" fill="white"/>
<path d="M341.723 3075.78C341.807 3074.83 343.193 3074.83 343.277 3075.78L343.296 3076C343.33 3076.37 343.628 3076.67 344.004 3076.7L344.222 3076.72C345.171 3076.81 345.171 3078.19 344.222 3078.28L344.004 3078.3C343.628 3078.33 343.33 3078.63 343.296 3079L343.277 3079.22C343.193 3080.17 341.807 3080.17 341.723 3079.22L341.704 3079C341.67 3078.63 341.372 3078.33 340.996 3078.3L340.778 3078.28C339.829 3078.19 339.829 3076.81 340.778 3076.72L340.996 3076.7C341.372 3076.67 341.67 3076.37 341.704 3076L341.723 3075.78Z" fill="white"/>
<path d="M119.723 2994.78C119.807 2993.83 121.193 2993.83 121.277 2994.78L121.296 2995C121.33 2995.37 121.628 2995.67 122.004 2995.7L122.222 2995.72C123.171 2995.81 123.171 2997.19 122.222 2997.28L122.004 2997.3C121.628 2997.33 121.33 2997.63 121.296 2998L121.277 2998.22C121.193 2999.17 119.807 2999.17 119.723 2998.22L119.704 2998C119.67 2997.63 119.372 2997.33 118.996 2997.3L118.778 2997.28C117.829 2997.19 117.829 2995.81 118.778 2995.72L118.996 2995.7C119.372 2995.67 119.67 2995.37 119.704 2995L119.723 2994.78Z" fill="white"/>
<path d="M235.723 3014.78C235.807 3013.83 237.193 3013.83 237.277 3014.78L237.296 3015C237.33 3015.37 237.628 3015.67 238.004 3015.7L238.222 3015.72C239.171 3015.81 239.171 3017.19 238.222 3017.28L238.004 3017.3C237.628 3017.33 237.33 3017.63 237.296 3018L237.277 3018.22C237.193 3019.17 235.807 3019.17 235.723 3018.22L235.704 3018C235.67 3017.63 235.372 3017.33 234.996 3017.3L234.778 3017.28C233.829 3017.19 233.829 3015.81 234.778 3015.72L234.996 3015.7C235.372 3015.67 235.67 3015.37 235.704 3015L235.723 3014.78Z" fill="white"/>
<path d="M95.723 3250.78C95.807 3249.83 97.193 3249.83 97.277 3250.78L97.2962 3251C97.3296 3251.37 97.628 3251.67 98.0044 3251.7L98.2223 3251.72C99.1706 3251.81 99.1706 3253.19 98.2223 3253.28L98.0044 3253.3C97.628 3253.33 97.3296 3253.63 97.2962 3254L97.277 3254.22C97.193 3255.17 95.807 3255.17 95.723 3254.22L95.7038 3254C95.6704 3253.63 95.372 3253.33 94.9956 3253.3L94.7777 3253.28C93.8294 3253.19 93.8294 3251.81 94.7777 3251.72L94.9956 3251.7C95.372 3251.67 95.6704 3251.37 95.7038 3251L95.723 3250.78Z" fill="white"/>
<path d="M366.723 3460.78C366.807 3459.83 368.193 3459.83 368.277 3460.78L368.296 3461C368.33 3461.37 368.628 3461.67 369.004 3461.7L369.222 3461.72C370.171 3461.81 370.171 3463.19 369.222 3463.28L369.004 3463.3C368.628 3463.33 368.33 3463.63 368.296 3464L368.277 3464.22C368.193 3465.17 366.807 3465.17 366.723 3464.22L366.704 3464C366.67 3463.63 366.372 3463.33 365.996 3463.3L365.778 3463.28C364.829 3463.19 364.829 3461.81 365.778 3461.72L365.996 3461.7C366.372 3461.67 366.67 3461.37 366.704 3461L366.723 3460.78Z" fill="white"/>
<path d="M346.723 3214.78C346.807 3213.83 348.193 3213.83 348.277 3214.78L348.296 3215C348.33 3215.37 348.628 3215.67 349.004 3215.7L349.222 3215.72C350.171 3215.81 350.171 3217.19 349.222 3217.28L349.004 3217.3C348.628 3217.33 348.33 3217.63 348.296 3218L348.277 3218.22C348.193 3219.17 346.807 3219.17 346.723 3218.22L346.704 3218C346.67 3217.63 346.372 3217.33 345.996 3217.3L345.778 3217.28C344.829 3217.19 344.829 3215.81 345.778 3215.72L345.996 3215.7C346.372 3215.67 346.67 3215.37 346.704 3215L346.723 3214.78Z" fill="white"/>
<path d="M151.723 3598.78C151.807 3597.83 153.193 3597.83 153.277 3598.78L153.296 3599C153.33 3599.37 153.628 3599.67 154.004 3599.7L154.222 3599.72C155.171 3599.81 155.171 3601.19 154.222 3601.28L154.004 3601.3C153.628 3601.33 153.33 3601.63 153.296 3602L153.277 3602.22C153.193 3603.17 151.807 3603.17 151.723 3602.22L151.704 3602C151.67 3601.63 151.372 3601.33 150.996 3601.3L150.778 3601.28C149.829 3601.19 149.829 3599.81 150.778 3599.72L150.996 3599.7C151.372 3599.67 151.67 3599.37 151.704 3599L151.723 3598.78Z" fill="white"/>
<path d="M332.723 3577.78C332.807 3576.83 334.193 3576.83 334.277 3577.78L334.296 3578C334.33 3578.37 334.628 3578.67 335.004 3578.7L335.222 3578.72C336.171 3578.81 336.171 3580.19 335.222 3580.28L335.004 3580.3C334.628 3580.33 334.33 3580.63 334.296 3581L334.277 3581.22C334.193 3582.17 332.807 3582.17 332.723 3581.22L332.704 3581C332.67 3580.63 332.372 3580.33 331.996 3580.3L331.778 3580.28C330.829 3580.19 330.829 3578.81 331.778 3578.72L331.996 3578.7C332.372 3578.67 332.67 3578.37 332.704 3578L332.723 3577.78Z" fill="white"/>
<path d="M160.723 1113.78C160.807 1112.83 162.193 1112.83 162.277 1113.78L162.296 1114C162.33 1114.37 162.628 1114.67 163.004 1114.7L163.222 1114.72C164.171 1114.81 164.171 1116.19 163.222 1116.28L163.004 1116.3C162.628 1116.33 162.33 1116.63 162.296 1117L162.277 1117.22C162.193 1118.17 160.807 1118.17 160.723 1117.22L160.704 1117C160.67 1116.63 160.372 1116.33 159.996 1116.3L159.778 1116.28C158.829 1116.19 158.829 1114.81 159.778 1114.72L159.996 1114.7C160.372 1114.67 160.67 1114.37 160.704 1114L160.723 1113.78Z" fill="white"/>
</svg>
