<svg width="819" height="235" viewBox="0 0 819 235" fill="none" xmlns="http://www.w3.org/2000/svg">
<path d="M1.96 1.92799H75.176V85H55.208V16.008H21.928V85H1.96V1.92799ZM130.589 86.28C125.981 86.28 121.714 85.9813 117.789 85.384C113.949 84.7867 109.938 83.7627 105.757 82.312C101.234 80.776 97.693 78.3013 95.133 74.888C92.573 71.3893 91.293 67.1653 91.293 62.216V25.864C91.293 21.768 92.189 18.0987 93.981 14.856C95.8583 11.6133 98.2477 9.05333 101.149 7.17599C103.709 5.55466 106.866 4.18933 110.621 3.07999C114.376 1.97066 117.874 1.28799 121.117 1.032C124.104 0.775996 127.261 0.647995 130.589 0.647995C134.514 0.647995 137.928 0.818662 140.829 1.16C143.73 1.416 146.973 2.01333 150.557 2.952C154.653 4.14666 158.024 5.59733 160.669 7.30399C163.314 9.01066 165.533 11.4 167.325 14.472C169.202 17.6293 170.141 21.4267 170.141 25.864V62.216C170.141 66.824 168.904 70.792 166.429 74.12C164.04 77.448 160.712 79.9653 156.445 81.672C148.765 84.744 140.146 86.28 130.589 86.28ZM130.845 72.072C133.661 72.072 136.008 71.9867 137.885 71.816C139.848 71.56 141.853 71.1333 143.901 70.536C145.949 69.9387 147.485 68.9573 148.509 67.592C149.618 66.1413 150.173 64.3493 150.173 62.216V25.736C150.173 21.8107 148.594 19.0373 145.437 17.416C142.28 15.7093 137.373 14.856 130.717 14.856C124.061 14.856 119.154 15.6667 115.997 17.288C112.84 18.9093 111.261 21.7253 111.261 25.736V62.216C111.261 64.3493 111.816 66.1413 112.925 67.592C114.034 68.9573 115.656 69.9387 117.789 70.536C119.837 71.1333 121.8 71.56 123.677 71.816C125.64 71.9867 128.029 72.072 130.845 72.072ZM179.17 70.792H180.962C184.461 70.792 187.277 69.4693 189.41 66.824C191.629 64.0933 193.335 59.144 194.53 51.976C195.725 44.808 196.322 34.6533 196.322 21.512V1.92799H256.738V70.792H268.898V104.328H250.978V85H197.09V104.328H179.17V70.792ZM236.77 70.92V16.008H214.242V26.248C214.242 47.8373 211.469 62.728 205.922 70.92H236.77ZM273.67 70.792H275.462C278.961 70.792 281.777 69.4693 283.91 66.824C286.129 64.0933 287.835 59.144 289.03 51.976C290.225 44.808 290.822 34.6533 290.822 21.512V1.92799H351.238V70.792H363.398V104.328H345.478V85H291.59V104.328H273.67V70.792ZM331.27 70.92V16.008H308.742V26.248C308.742 47.8373 305.969 62.728 300.422 70.92H331.27ZM375.21 1.92799H438.57V16.136H395.178V35.208H434.346V49.416H395.178V70.792H439.85V85H375.21V1.92799ZM453.335 1.92799H486.615C494.722 1.92799 501.122 2.48266 505.815 3.592C510.594 4.70133 514.05 6.664 516.183 9.48C518.402 12.2107 519.511 16.0507 519.511 21V36.744C519.511 42.2053 518.316 46.472 515.927 49.544C513.623 52.616 509.911 54.792 504.791 56.072C499.756 57.352 492.93 57.992 484.311 57.992H473.303V85H453.335V1.92799ZM485.975 44.296C491.18 44.296 494.85 43.6987 496.983 42.504C499.116 41.224 500.183 39.0907 500.183 36.104V22.792C500.183 20.0613 499.159 18.2693 497.111 17.416C495.148 16.5627 491.351 16.136 485.719 16.136H473.303V44.296H485.975ZM539.985 57.864C542.716 52.8293 545.489 48.9893 548.305 46.344C551.206 43.6987 554.79 41.864 559.057 40.84V40.584C555.729 39.304 553.084 37.7253 551.121 35.848C549.158 33.8853 546.897 30.8987 544.337 26.888L528.465 1.92799H550.609L564.305 24.456C566.865 28.6373 568.998 31.4533 570.705 32.904C572.497 34.3547 574.758 35.08 577.489 35.08V1.92799H597.073V35.08C599.804 35.08 602.022 34.3547 603.729 32.904C605.521 31.4533 607.697 28.6373 610.257 24.456L623.953 1.92799H646.097L630.225 26.888C627.665 30.8987 625.404 33.8853 623.441 35.848C621.478 37.7253 618.833 39.304 615.505 40.584V40.84C619.772 41.864 623.313 43.6987 626.129 46.344C629.03 48.9893 631.846 52.8293 634.577 57.864L649.297 85H627.153L613.585 60.552C611.622 56.968 610.001 54.408 608.721 52.872C607.441 51.2507 605.948 50.1413 604.241 49.544C602.534 48.8613 600.145 48.52 597.073 48.52V85H577.489V48.52C574.417 48.52 572.028 48.8613 570.321 49.544C568.614 50.1413 567.121 51.2507 565.841 52.872C564.561 54.408 562.94 56.968 560.977 60.552L547.409 85H525.265L539.985 57.864ZM658.835 1.92799H678.803V34.696C682.558 34.696 685.587 34.0133 687.891 32.648C690.195 31.1973 692.712 28.4667 695.443 24.456L711.059 1.92799H733.459L715.539 26.888C712.808 30.728 710.291 33.672 707.987 35.72C705.768 37.6827 702.995 39.304 699.667 40.584V40.84C703.934 41.864 707.475 43.6987 710.291 46.344C713.192 48.9893 716.008 52.8293 718.739 57.864L733.459 85H711.059L697.491 60.552C695.699 57.3093 693.95 54.8773 692.243 53.256C690.622 51.5493 688.787 50.3973 686.739 49.8C684.691 49.2027 682.046 48.904 678.803 48.904V85H658.835V1.92799ZM764.726 1.92799H789.046L818.998 85H798.774L791.35 63.112H761.014L753.718 85H734.006L764.726 1.92799ZM786.998 49.8L776.502 18.568H775.99L765.494 49.8H786.998ZM38.696 234.28C34.9413 234.28 31.5707 234.109 28.584 233.768C25.6827 233.427 22.4827 232.787 18.984 231.848C15.0587 230.824 11.816 229.501 9.256 227.88C6.696 226.173 4.56267 223.827 2.856 220.84C1.064 217.853 0.168 214.312 0.168 210.216V173.736C0.168 157.011 13.0107 148.648 38.696 148.648C45.2667 148.648 54.056 149.587 65.064 151.464V166.44C55.1653 164.051 46.4613 162.856 38.952 162.856C35.7947 162.856 33.32 162.941 31.528 163.112C29.8213 163.283 28.0293 163.709 26.152 164.392C22.1413 165.757 20.136 168.787 20.136 173.48V208.808C20.136 216.317 27.0053 220.072 40.744 220.072C46.632 220.072 54.9093 218.835 65.576 216.36V231.464C56.4453 233.341 47.4853 234.28 38.696 234.28ZM100.351 149.928H124.671L154.623 233H134.399L126.975 211.112H96.639L89.343 233H69.631L100.351 149.928ZM122.623 197.8L112.127 166.568H111.615L101.119 197.8H122.623ZM163.835 149.928H183.803V206.76L219.643 149.928H239.611V233H219.643V175.272L183.803 233H163.835V149.928ZM201.851 141.096C193.403 141.096 187.003 139.261 182.651 135.592C178.299 131.837 176.123 126.973 176.123 121H192.123C192.55 124.669 193.488 127.272 194.939 128.808C196.475 130.344 198.779 131.112 201.851 131.112C204.923 131.112 207.184 130.344 208.635 128.808C210.171 127.272 211.152 124.669 211.579 121H227.579C227.579 126.973 225.403 131.837 221.051 135.592C216.699 139.261 210.299 141.096 201.851 141.096ZM276.785 164.136H251.185V149.928H322.225V164.136H296.753V233H276.785V164.136ZM355.726 149.928H380.046L409.998 233H389.774L382.35 211.112H352.014L344.718 233H325.006L355.726 149.928ZM377.998 197.8L367.502 166.568H366.99L356.494 197.8H377.998Z" fill="white"/>
</svg>
