<svg width="22" height="19" viewBox="0 0 22 19" fill="none" xmlns="http://www.w3.org/2000/svg">
<path d="M21.6632 0.531021C21.3947 0.188611 20.9916 0 20.5283 0C20.2782 0 20.0134 0.0543608 19.741 0.16152L1.11533 7.49129C0.124993 7.8811 -0.00830037 8.46786 0.000379633 8.78291C0.00901667 9.0964 0.172777 9.67009 1.1696 10.0013L5.11965 11.5047L7.20143 16.4542C7.4107 17.1388 7.84796 17.619 8.40606 17.7747C8.53472 17.8107 8.66608 17.8283 8.79838 17.8283C9.25163 17.8283 9.71571 17.621 10.1165 17.2301L11.8412 15.547L16.0495 18.5555C16.4285 18.8464 16.8409 19 17.243 19C18.0592 19 18.7102 18.3794 18.9014 17.419L21.9476 2.11668C22.0728 1.48778 21.9718 0.924668 21.6632 0.531021ZM6.42874 11.2724L11.8039 8.27854L8.05779 11.8476C7.92441 11.9747 7.85011 12.1537 7.8499 12.3403C7.84964 12.3472 7.84882 12.3538 7.84878 12.3607L7.83585 14.6178L6.42874 11.2724ZM9.23389 16.2542C9.19414 16.2929 9.15431 16.327 9.11494 16.3567L9.13072 13.6092L10.7546 14.7701L9.23389 16.2542ZM20.6852 1.84554L17.6391 17.1479C17.6083 17.3021 17.5082 17.6611 17.243 17.6611C17.1191 17.6611 16.9654 17.5948 16.8103 17.4745C16.8036 17.4693 16.7969 17.4643 16.79 17.4595L12.1506 14.1427C12.1499 14.1423 12.1493 14.1418 12.1487 14.1414L9.52561 12.2661L16.4548 5.66445C16.6942 5.43634 16.7328 5.0588 16.5447 4.78361C16.3566 4.50841 16.0008 4.42165 15.7145 4.58112L5.55008 10.2426L1.59995 8.73909C1.59707 8.73797 1.59419 8.7369 1.59127 8.73583L20.1978 1.4136C20.3546 1.35188 20.4641 1.33893 20.5283 1.33893C20.5601 1.33893 20.637 1.34259 20.6636 1.37651C20.6976 1.41994 20.7405 1.56762 20.6852 1.84554Z" fill="white"/>
</svg>
